<svg xmlns="http://www.w3.org/2000/svg">
  <symbol id="discord" viewBox="0 0 24 24">
    <path
      d="M18.584 6.182a15.829 15.829 0 0 0-3.867-1.18.06.06 0 0 0-.063.029c-.166.292-.351.673-.48.974a14.698 14.698 0 0 0-4.345 0 9.786 9.786 0 0 0-.488-.974.06.06 0 0 0-.063-.03c-1.356.23-2.655.633-3.867 1.18a.055.055 0 0 0-.025.021c-2.464 3.622-3.139 7.155-2.807 10.643a.063.063 0 0 0 .024.043 15.856 15.856 0 0 0 4.745 2.36.062.062 0 0 0 .066-.021c.366-.491.692-1.01.97-1.554a.059.059 0 0 0-.032-.083 10.45 10.45 0 0 1-1.482-.695.06.06 0 0 1-.03-.048.06.06 0 0 1 .024-.05c.1-.074.2-.151.294-.228a.06.06 0 0 1 .062-.008c3.109 1.397 6.476 1.397 9.548 0a.06.06 0 0 1 .063.007c.095.078.194.155.294.228a.06.06 0 0 1 .016.079.058.058 0 0 1-.02.02 9.775 9.775 0 0 1-1.483.695.06.06 0 0 0-.033.083c.285.544.611 1.061.97 1.553a.061.061 0 0 0 .067.022 15.806 15.806 0 0 0 4.751-2.36.06.06 0 0 0 .017-.019.059.059 0 0 0 .008-.024c.396-4.032-.663-7.536-2.81-10.64a.047.047 0 0 0-.024-.023ZM8.85 14.72c-.935 0-1.707-.847-1.707-1.885s.757-1.884 1.707-1.884c.958 0 1.723.853 1.708 1.884 0 1.04-.757 1.885-1.708 1.885Zm6.314 0c-.937 0-1.708-.847-1.708-1.885s.756-1.884 1.708-1.884c.958 0 1.722.853 1.707 1.884 0 1.04-.749 1.885-1.707 1.885Z"
      fill="currentColor" />
  </symbol>
  <symbol id="twitter" viewBox="0 0 24 24">
    <path
      d="M21.452 5.78c-.679.3-1.408.503-2.174.595a3.795 3.795 0 0 0 1.664-2.095 7.558 7.558 0 0 1-2.404.918 3.787 3.787 0 0 0-6.45 3.454 10.75 10.75 0 0 1-7.803-3.956 3.787 3.787 0 0 0 1.172 5.055 3.776 3.776 0 0 1-1.715-.474v.049a3.787 3.787 0 0 0 3.037 3.712 3.812 3.812 0 0 1-1.71.065 3.788 3.788 0 0 0 3.537 2.628A7.597 7.597 0 0 1 3 17.299 10.707 10.707 0 0 0 8.802 19c6.965 0 10.772-5.768 10.772-10.77 0-.163-.004-.327-.012-.49a7.697 7.697 0 0 0 1.888-1.958l.002-.003Z"
      fill="currentColor" />
  </symbol>
  <symbol id="youtube" viewBox="0 0 24 24">
    <path
      d="M12.068 4.75h.116c1.08.004 6.546.043 8.02.432.446.12.852.351 1.178.673.326.321.56.721.68 1.16.132.49.225 1.14.288 1.81l.013.134.03.335.01.134c.085 1.18.096 2.285.097 2.526v.097c-.001.25-.013 1.43-.108 2.658l-.01.136-.012.134c-.066.738-.163 1.471-.308 2.01a2.58 2.58 0 0 1-.68 1.161 2.645 2.645 0 0 1-1.178.672c-1.522.403-7.31.431-8.112.433h-.186c-.405 0-2.083-.008-3.842-.067l-.223-.008-.114-.005-.225-.01-.224-.008c-1.457-.064-2.844-.166-3.484-.336a2.645 2.645 0 0 1-1.177-.671 2.58 2.58 0 0 1-.68-1.16c-.146-.538-.243-1.273-.308-2.01l-.01-.136-.011-.135c-.065-.874-.101-1.75-.108-2.627v-.159c.003-.277.013-1.236.084-2.295l.01-.133.003-.067.01-.134.03-.335.013-.135c.063-.67.156-1.32.288-1.809a2.58 2.58 0 0 1 .68-1.16 2.645 2.645 0 0 1 1.178-.673c.639-.167 2.026-.27 3.483-.335l.223-.01.226-.007.113-.004.225-.009c1.249-.04 2.498-.061 3.748-.066h.254V4.75ZM9.9 8.893v6.218l5.456-3.108L9.9 8.893Z"
      fill="currentColor" />
  </symbol>
  <symbol id="mail" viewBox="0 0 24 24">
    <path
      d="M12 11.75 3 7.197V6.125c0-.316.111-.583.334-.8.223-.217.486-.325.791-.325h15.75c.305 0 .568.108.791.325.223.217.334.484.334.8v1.072l-9 4.553Zm-.563 1.125h1.126L21 8.498v8.877c0 .305-.111.568-.334.791a1.08 1.08 0 0 1-.791.334H4.125c-.305 0-.568-.111-.791-.334A1.081 1.081 0 0 1 3 17.375V8.498l8.438 4.377Z"
      fill="currentColor" />
  </symbol>
  <symbol id="arrow-down" viewBox="0 0 24 24">
    <path fill-rule="evenodd" clip-rule="evenodd"
      d="M12.57 14.774 19 7.066h3.447l-9.877 11.84v-4.132Zm-1.693 0-6.43-7.708H1l9.877 11.84v-4.132Z"
      fill="currentColor" />
  </symbol>
  <symbol id="plus" viewBox="0 0 24 24">
    <path fill-rule="evenodd" clip-rule="evenodd"
      d="M12.703 3.563h-1.406c-.125 0-.188.062-.188.187v7.36H4.125c-.125 0-.188.062-.188.187v1.406c0 .125.063.188.188.188h6.984v7.359c0 .125.063.188.188.188h1.406c.125 0 .188-.063.188-.188v-7.36h6.984c.125 0 .188-.062.188-.187v-1.406c0-.125-.063-.188-.188-.188h-6.984V3.75c0-.125-.063-.188-.188-.188Z"
      fill="currentColor" />
  </symbol>
  <symbol id="minus" viewBox="0 0 24 24">
    <path
      d="M4.125 11.11h15.75c.125 0 .188.062.188.187v1.406c0 .125-.063.188-.188.188H4.125c-.125 0-.188-.063-.188-.188v-1.406c0-.125.063-.188.188-.188Z"
      fill="currentColor" />
  </symbol>
  <symbol id="menu" viewBox="0 0 24 24">
    <path d="M3.6 18h16.8v-2.4H3.6V18Zm0-12v2.4h16.8V6H3.6Zm0 7.2h16.8v-2.4H3.6v2.4Z" fill="currentColor" />
  </symbol>
  <symbol id="cross" viewBox="0 0 24 24">
    <path fill-rule="evenodd" clip-rule="evenodd"
      d="M18.597 16.88 16.9 18.576l-5.096-5.096-5.107 5.107L5 16.891l5.107-5.107-5.086-5.087L6.718 5l5.086 5.087 5.075-5.075 1.697 1.697-5.075 5.075 5.096 5.095Z"
      fill="currentColor" />
  </symbol>
  <symbol id="play" viewBox="0 0 24 24">
    <path
      d="m19.867 10.934-12.9-6.45A1.15 1.15 0 0 0 5.334 5.51v12.895A1.144 1.144 0 0 0 7 19.433l12.867-6.45a1.15 1.15 0 0 0 0-2.055v.005Z"
      fill="currentColor" />
  </symbol>
</svg>