<svg fill="none" xmlns="http://www.w3.org/2000/svg" width="271" height="26" viewBox="0 0 546 48">
  <path fill="#fff"
    d="M20.204 4.663v30.72c0 .67-.582 1.004-1.746 1.004-1.163 0-1.745-.335-1.745-1.004v-13.57H3.49v13.57c0 .67-.582 1.004-1.746 1.004C.582 36.387 0 36.052 0 35.383V4.663C0 3.994.582 3.66 1.745 3.66c1.164 0 1.746.335 1.746 1.004v14.095h13.222V4.663c0-.669.581-1.004 1.745-1.004 1.164 0 1.746.335 1.746 1.004ZM35.59 47.078H32.45c-.582 0-.873-.51-.873-1.528s.29-1.527.873-1.527h3.142c1.629 0 2.749-.247 3.36-.742.61-.465 1.032-1.352 1.265-2.662l.61-3.796h-2.53c-2.298 0-3.927-.465-4.887-1.396-.96-.931-1.615-2.459-1.964-4.582l-3.185-19.2c-.117-.67-.175-1.033-.175-1.091 0-.524.553-.785 1.658-.785 1.106 0 1.717.334 1.833 1.003l3.273 19.593c.203 1.25.523 2.138.96 2.662.465.494 1.294.742 2.487.742h3.055l3.84-22.997c.116-.669.698-1.003 1.745-1.003 1.047 0 1.57.261 1.57.785 0 .058-.043.393-.13 1.004l-4.844 28.625c-.465 2.764-1.207 4.596-2.225 5.498-1.018.931-2.924 1.397-5.716 1.397ZM62.093 33.114h3.796c3.957 0 5.935-1.135 5.935-3.404V15.79c0-2.269-1.993-3.403-5.978-3.403-3.957 0-5.935 1.134-5.935 3.403v30.502c0 .67-.581 1.004-1.745 1.004-1.164 0-1.745-.335-1.745-1.004V16.227c0-2.415.858-4.16 2.574-5.237 1.716-1.105 4-1.658 6.85-1.658 2.852 0 5.136.553 6.852 1.658 1.745 1.077 2.618 2.822 2.618 5.237v13.047c0 2.415-.858 4.175-2.575 5.28-1.716 1.076-4 1.614-6.85 1.614h-3.797c-.582 0-.873-.509-.873-1.527 0-1.018.291-1.527.873-1.527ZM103.137 16.14v1.308c0 2.473-.509 4.175-1.528 5.106-1.018.93-2.88 1.527-5.585 1.79l-8.51.828v5.193c0 2.269 1.892 3.404 5.674 3.404 4.305 0 6.458-.99 6.458-2.968v-1.658c0-.669.582-1.004 1.745-1.004 1.164 0 1.746.335 1.746 1.004v1.222c0 4.305-3.2 6.458-9.6 6.458-2.822 0-5.12-.553-6.895-1.658-1.745-1.106-2.618-2.851-2.618-5.236V16.227c0-2.415.93-4.16 2.793-5.237 1.861-1.105 4.29-1.658 7.287-1.658 2.996 0 5.25.524 6.764 1.571 1.512 1.047 2.269 2.793 2.269 5.236Zm-15.622-.35v6.328l8.203-.83c1.659-.174 2.72-.523 3.186-1.047.494-.523.742-1.454.742-2.793V15.79c0-2.269-2.022-3.403-6.066-3.403-4.043 0-6.065 1.134-6.065 3.403ZM123.894 17.972V15.79c0-2.269-1.353-3.403-4.058-3.403s-4.058 1.134-4.058 3.403v20.03c0 .669-.582 1.003-1.746 1.003-1.163 0-1.745-.334-1.745-1.004V16.227c0-2.415.684-4.16 2.051-5.237 1.396-1.105 3.229-1.658 5.498-1.658 5.033 0 7.549 2.27 7.549 6.807v1.833c0 .67-.582 1.004-1.745 1.004-1.164 0-1.746-.335-1.746-1.004ZM147.658 17.536v-1.702c0-2.298-1.876-3.447-5.629-3.447-1.6 0-2.909.261-3.927.785-1.019.524-1.528 1.353-1.528 2.487v.96c0 1.571.204 2.604.611 3.099.407.465 1.28.858 2.618 1.178l3.797.96c3.607.93 5.745 1.832 6.414 2.705.815 1.077 1.222 2.502 1.222 4.277v1.57c0 2.27-.887 3.913-2.662 4.931-1.745.99-4.014 1.484-6.807 1.484-4.538 0-7.418-1.149-8.64-3.447-.495-.96-.742-2.124-.742-3.491v-1.397c0-.378.131-.625.393-.741.262-.146.713-.218 1.353-.218 1.134 0 1.701.363 1.701 1.09v1.964c0 1.164.51 1.993 1.528 2.487 1.018.466 2.502.699 4.451.699 3.985 0 5.978-1.019 5.978-3.055v-2.313c0-.902-.349-1.6-1.047-2.094-.67-.495-1.833-.96-3.491-1.397l-3.84-.96c-2.589-.64-4.291-1.396-5.106-2.269-.785-.902-1.178-2.633-1.178-5.193v-.523c.058-2.327.887-4.015 2.487-5.062 1.6-1.047 3.709-1.57 6.328-1.57 6.109 0 9.163 2.268 9.163 6.806v1.528c0 .61-.582.916-1.745.916-1.135 0-1.702-.349-1.702-1.047ZM175.578 30.365V15.79c0-2.269-1.993-3.403-5.978-3.403-3.956 0-5.935 1.134-5.935 3.403v14.575c0 2.269 1.979 3.404 5.935 3.404 3.985 0 5.978-1.135 5.978-3.404Zm3.491-14.138v13.701c0 2.415-.858 4.175-2.575 5.28-1.716 1.077-4 1.615-6.85 1.615-2.851 0-5.15-.538-6.895-1.614-1.716-1.106-2.575-2.866-2.575-5.28V16.227c0-2.415.859-4.16 2.575-5.237 1.716-1.105 4-1.658 6.851-1.658s5.134.553 6.851 1.658c1.745 1.077 2.618 2.822 2.618 5.237ZM207.119 16.227v19.156c0 .67-.582 1.004-1.745 1.004-1.164 0-1.746-.335-1.746-1.004V15.79c0-2.269-1.993-3.403-5.978-3.403-3.956 0-5.935 1.134-5.935 3.403v19.593c0 .67-.581 1.004-1.745 1.004-1.164 0-1.746-.335-1.746-1.004V16.227c0-2.415.859-4.16 2.575-5.237 1.716-1.105 4-1.658 6.851-1.658s5.134.553 6.851 1.658c1.745 1.077 2.618 2.822 2.618 5.237ZM220.224 10.772v20.291c0 .931.218 1.804.654 2.618.437.786.655 1.193.655 1.222 0 .35-.276.727-.829 1.135-.553.378-1.018.567-1.397.567-.61 0-1.192-.524-1.745-1.571-.553-1.076-.829-2.255-.829-3.535V10.772c0-.669.582-1.003 1.745-1.003 1.164 0 1.746.334 1.746 1.003Zm.131-9.294v3.796c0 .727-.64 1.09-1.92 1.09-1.251 0-1.877-.363-1.877-1.09V1.478c0-.728.626-1.091 1.877-1.091 1.28 0 1.92.363 1.92 1.09ZM232.87 15.79v14.575c0 2.269 1.862 3.404 5.585 3.404 3.724 0 5.586-1.135 5.586-3.404v-1.833c0-.669.582-1.003 1.745-1.003 1.164 0 1.746.334 1.746 1.003v1.396c0 2.415-.829 4.175-2.488 5.28-1.629 1.077-3.825 1.615-6.589 1.615-2.734 0-4.931-.538-6.589-1.614-1.658-1.106-2.487-2.866-2.487-5.28V16.227c0-2.415.829-4.16 2.487-5.237 1.658-1.105 3.855-1.658 6.589-1.658 2.764 0 4.96.553 6.589 1.658 1.659 1.077 2.488 2.822 2.488 5.237v1.396c0 .67-.582 1.004-1.746 1.004-1.163 0-1.745-.335-1.745-1.004V15.79c0-2.269-1.862-3.403-5.586-3.403-3.723 0-5.585 1.134-5.585 3.403ZM278.855 33.114h7.069c.582 0 .873.51.873 1.527 0 1.018-.291 1.528-.873 1.528h-7.069c-2.502 0-4.277-.597-5.324-1.79-1.047-1.221-1.571-3.185-1.571-5.89V4.662c0-.669.582-1.004 1.746-1.004 1.163 0 1.745.335 1.745 1.004v23.825c0 1.688.247 2.88.742 3.579.524.698 1.411 1.047 2.662 1.047ZM303.071 36.169h-5.105c-2.56 0-4.407-.524-5.542-1.571-1.135-1.048-1.702-2.822-1.702-5.324v-.35c0-2.472.509-4.174 1.527-5.105 1.019-.93 2.837-1.527 5.455-1.789l7.549-.742v-4.843c0-2.27-1.978-3.404-5.934-3.404h-5.979c-.581 0-.872-.509-.872-1.527 0-1.018.291-1.527.872-1.527h5.979c2.85 0 5.134.552 6.85 1.658 1.717 1.076 2.575 2.822 2.575 5.236v12.873c0 1.89.335 3.39 1.004 4.494.203.35.305.568.305.655 0 .35-.276.727-.829 1.135-.553.378-1.018.567-1.396.567-.64 0-1.237-.596-1.789-1.79-.524-1.221-.786-2.763-.786-4.625v-5.847l-7.287.742c-1.571.174-2.589.523-3.055 1.047-.465.524-.698 1.455-.698 2.793v.349c0 1.396.233 2.385.698 2.967.495.582 1.513.873 3.055.873h5.105c.582 0 .873.51.873 1.527 0 1.018-.291 1.528-.873 1.528ZM327.793 13.041h-3.796c-.582 0-.873-.509-.873-1.527 0-1.018.291-1.527.873-1.527h3.796c2.851 0 5.134.552 6.851 1.658 1.716 1.076 2.574 2.822 2.574 5.236v13.047c0 2.415-.872 4.175-2.618 5.28-1.716 1.077-4 1.615-6.851 1.615s-5.134-.538-6.851-1.614c-1.716-1.106-2.574-2.866-2.574-5.28V2.262c0-.669.582-1.004 1.745-1.004 1.164 0 1.746.335 1.746 1.004v28.102c0 2.269 1.978 3.404 5.934 3.404 3.986 0 5.978-1.135 5.978-3.404v-13.92c0-2.27-1.978-3.404-5.934-3.404ZM361.331 30.365V15.79c0-2.269-1.993-3.403-5.978-3.403-3.957 0-5.935 1.134-5.935 3.403v14.575c0 2.269 1.978 3.404 5.935 3.404 3.985 0 5.978-1.135 5.978-3.404Zm3.491-14.138v13.701c0 2.415-.858 4.175-2.575 5.28-1.716 1.077-4 1.615-6.851 1.615s-5.149-.538-6.894-1.614c-1.717-1.106-2.575-2.866-2.575-5.28V16.227c0-2.415.858-4.16 2.575-5.237 1.716-1.105 4-1.658 6.851-1.658s5.134.553 6.851 1.658c1.745 1.077 2.618 2.822 2.618 5.237ZM385.585 17.972V15.79c0-2.269-1.353-3.403-4.059-3.403-2.705 0-4.058 1.134-4.058 3.403v20.03c0 .669-.582 1.003-1.745 1.003-1.164 0-1.746-.334-1.746-1.004V16.227c0-2.415.684-4.16 2.051-5.237 1.397-1.105 3.229-1.658 5.498-1.658 5.033 0 7.549 2.27 7.549 6.807v1.833c0 .67-.581 1.004-1.745 1.004-1.164 0-1.745-.335-1.745-1.004ZM405.77 36.169h-5.105c-2.56 0-4.408-.524-5.542-1.571-1.135-1.048-1.702-2.822-1.702-5.324v-.35c0-2.472.509-4.174 1.527-5.105 1.018-.93 2.837-1.527 5.455-1.789l7.549-.742v-4.843c0-2.27-1.978-3.404-5.935-3.404h-5.978c-.582 0-.873-.509-.873-1.527 0-1.018.291-1.527.873-1.527h5.978c2.851 0 5.135.552 6.851 1.658 1.717 1.076 2.575 2.822 2.575 5.236v12.873c0 1.89.334 3.39 1.003 4.494.204.35.306.568.306.655 0 .35-.276.727-.829 1.135-.553.378-1.018.567-1.397.567-.64 0-1.236-.596-1.789-1.79-.523-1.221-.785-2.763-.785-4.625v-5.847l-7.287.742c-1.571.174-2.589.523-3.055 1.047-.465.524-.698 1.455-.698 2.793v.349c0 1.396.233 2.385.698 2.967.495.582 1.513.873 3.055.873h5.105c.582 0 .873.51.873 1.527 0 1.018-.291 1.528-.873 1.528ZM426.259 4.881v5.106h4.582c.582 0 .873.509.873 1.527 0 1.018-.291 1.527-.873 1.527h-4.582v18.022c0 .931.218 1.804.655 2.618.436.786.654 1.193.654 1.222 0 .35-.276.727-.829 1.135-.553.378-1.018.567-1.396.567-.611 0-1.193-.524-1.746-1.571-.552-1.076-.829-2.255-.829-3.535V13.041h-3.491c-.582 0-.872-.509-.872-1.527 0-1.018.29-1.527.872-1.527h3.491V4.88c0-.669.582-1.003 1.746-1.003 1.163 0 1.745.334 1.745 1.003ZM452.78 30.365V15.79c0-2.269-1.993-3.403-5.978-3.403-3.957 0-5.935 1.134-5.935 3.403v14.575c0 2.269 1.978 3.404 5.935 3.404 3.985 0 5.978-1.135 5.978-3.404Zm3.491-14.138v13.701c0 2.415-.858 4.175-2.575 5.28-1.716 1.077-4 1.615-6.851 1.615s-5.149-.538-6.894-1.614c-1.717-1.106-2.575-2.866-2.575-5.28V16.227c0-2.415.858-4.16 2.575-5.237 1.716-1.105 4-1.658 6.851-1.658s5.134.553 6.85 1.658c1.746 1.077 2.619 2.822 2.619 5.237ZM477.033 17.972V15.79c0-2.269-1.352-3.403-4.058-3.403-2.705 0-4.058 1.134-4.058 3.403v20.03c0 .669-.582 1.003-1.745 1.003-1.164 0-1.746-.334-1.746-1.004V16.227c0-2.415.684-4.16 2.051-5.237 1.396-1.105 3.229-1.658 5.498-1.658 5.033 0 7.549 2.27 7.549 6.807v1.833c0 .67-.581 1.004-1.745 1.004-1.164 0-1.746-.335-1.746-1.004ZM489.67 10.772v20.291c0 .931.218 1.804.654 2.618.437.786.655 1.193.655 1.222 0 .35-.276.727-.829 1.135-.553.378-1.018.567-1.396.567-.611 0-1.193-.524-1.746-1.571-.553-1.076-.829-2.255-.829-3.535V10.772c0-.669.582-1.003 1.745-1.003 1.164 0 1.746.334 1.746 1.003Zm.131-9.294v3.796c0 .727-.64 1.09-1.92 1.09-1.251 0-1.877-.363-1.877-1.09V1.478c0-.728.626-1.091 1.877-1.091 1.28 0 1.92.363 1.92 1.09ZM517.938 16.14v1.308c0 2.473-.509 4.175-1.528 5.106-1.018.93-2.88 1.527-5.585 1.79l-8.509.828v5.193c0 2.269 1.891 3.404 5.673 3.404 4.305 0 6.458-.99 6.458-2.968v-1.658c0-.669.582-1.004 1.745-1.004 1.164 0 1.746.335 1.746 1.004v1.222c0 4.305-3.2 6.458-9.6 6.458-2.822 0-5.12-.553-6.895-1.658-1.745-1.106-2.618-2.851-2.618-5.236V16.227c0-2.415.931-4.16 2.793-5.237 1.862-1.105 4.291-1.658 7.287-1.658 2.996 0 5.251.524 6.764 1.571 1.512 1.047 2.269 2.793 2.269 5.236Zm-15.622-.35v6.328l8.204-.83c1.658-.174 2.72-.523 3.185-1.047.495-.523.742-1.454.742-2.793V15.79c0-2.269-2.022-3.403-6.066-3.403-4.043 0-6.065 1.134-6.065 3.403ZM541.706 17.536v-1.702c0-2.298-1.876-3.447-5.629-3.447-1.6 0-2.909.261-3.927.785-1.018.524-1.527 1.353-1.527 2.487v.96c0 1.571.203 2.604.611 3.099.407.465 1.28.858 2.618 1.178l3.796.96c3.607.93 5.746 1.832 6.415 2.705.814 1.077 1.221 2.502 1.221 4.277v1.57c0 2.27-.887 3.913-2.661 4.931-1.746.99-4.015 1.484-6.808 1.484-4.538 0-7.418-1.149-8.64-3.447-.494-.96-.741-2.124-.741-3.491v-1.397c0-.378.13-.625.392-.741.262-.146.713-.218 1.353-.218 1.135 0 1.702.363 1.702 1.09v1.964c0 1.164.509 1.993 1.527 2.487 1.018.466 2.502.699 4.451.699 3.985 0 5.978-1.019 5.978-3.055v-2.313c0-.902-.349-1.6-1.047-2.094-.669-.495-1.833-.96-3.491-1.397l-3.84-.96c-2.589-.64-4.291-1.396-5.105-2.269-.786-.902-1.179-2.633-1.179-5.193v-.523c.059-2.327.888-4.015 2.488-5.062 1.6-1.047 3.709-1.57 6.327-1.57 6.109 0 9.164 2.268 9.164 6.806v1.528c0 .61-.582.916-1.746.916-1.134 0-1.702-.349-1.702-1.047Z" />
</svg>