<svg fill="none" xmlns="http://www.w3.org/2000/svg" width="176" height="36" viewBox="0 0 358 58">
  <path fill="#fff"
    d="M41.449 39.771c-.038.15-.056.298-.056.448.018.13.01.223-.028.28-.019.055-.084.046-.196-.029a8.235 8.235 0 0 1-.587-.587l-.727-.224-.308.308a1.113 1.113 0 0 1-.168.14c-.149.13-.289.149-.42.056a5.525 5.525 0 0 0-.447-.392 1.89 1.89 0 0 0-.335-.252c-.056-.037-.093-.037-.112 0v.196a1.01 1.01 0 0 1 0 .336c0 .056-.047.158-.14.307-.093.13-.14.224-.14.28-.037.168-.093.224-.167.168-.075-.056-.15-.075-.224-.056a.43.43 0 0 1-.168-.056 3.429 3.429 0 0 1-.224-.168 1.696 1.696 0 0 1-.252-.363 6.127 6.127 0 0 0-.195-.448l-.168-.391c-.056-.13-.121-.29-.196-.476a16.78 16.78 0 0 1-.196-.727c-.055-.298-.13-.848-.223-1.65-.093-.801-.196-1.761-.308-2.88a463.805 463.805 0 0 0-.391-3.803c-.13-1.399-.27-2.862-.42-4.39-.13-1.53-.27-3.077-.42-4.643a837.535 837.535 0 0 1-.782-8.81 441.51 441.51 0 0 0-.308-3.495L21.677 37.03a8.57 8.57 0 0 1-.783 1.483 5.903 5.903 0 0 1-.923 1.062c-.298.261-.596.438-.895.532-.28.093-.512.074-.699-.056a2.665 2.665 0 0 1-.699-.671 7.622 7.622 0 0 1-.447-.867 15.046 15.046 0 0 1-.308-.979c-.093-.336-.205-.68-.335-1.035-.187-.54-.43-1.407-.728-2.6-.28-1.194-.605-2.583-.978-4.167a385.86 385.86 0 0 1-1.175-5.23c-.41-1.901-.83-3.822-1.258-5.76-.429-1.958-.848-3.87-1.259-5.734a357.496 357.496 0 0 0-1.118-5.201c-.093.652-.243 1.603-.448 2.852a579.19 579.19 0 0 1-.727 4.251c-.26 1.585-.55 3.29-.867 5.118l-.95 5.48a520.617 520.617 0 0 1-.895 5.314c-.28 1.716-.541 3.263-.783 4.643-.224 1.38-.42 2.526-.588 3.44-.149.894-.233 1.453-.251 1.677 0 .168-.038.345-.112.532-.056.149-.14.307-.252.475a2.055 2.055 0 0 1-.391.531l-.448.168c-.15.056-.28.056-.391 0a.359.359 0 0 1-.224-.308c-.019-.13-.121-.251-.308-.363a1.47 1.47 0 0 0-.363-.224c-.13-.037-.252-.158-.364-.363a.697.697 0 0 0-.056-.308.325.325 0 0 0-.056-.084.826.826 0 0 1-.084-.112 3.531 3.531 0 0 0-.335-.363 3.045 3.045 0 0 1-.252-.727c-.037-.28-.01-.625.084-1.035a19.9 19.9 0 0 0 .224-1.007c.112-.56.242-1.23.391-2.013.168-.802.345-1.678.532-2.63.186-.969.372-1.947.559-2.935.186-.988.354-1.94.503-2.853.168-.913.308-1.724.42-2.433.112-.615.289-1.482.531-2.6.261-1.138.56-2.396.895-3.776.336-1.38.69-2.824 1.063-4.335.391-1.51.764-2.964 1.118-4.362.354-1.417.671-2.713.951-3.887.298-1.193.522-2.144.671-2.853a1.595 1.595 0 0 1-.084-.28 1.423 1.423 0 0 1-.028-.279c-.074-.186-.065-.289.028-.308a.452.452 0 0 0 .252-.112c0-.037.01-.065.028-.083.019-.019.028-.047.028-.084 0-.112.019-.168.056-.168 0-.242.037-.4.112-.475a.495.495 0 0 1 .223-.14c.094-.019.178-.028.252-.028.075 0 .121-.056.14-.168.037-.242.075-.4.112-.475.056-.094.112-.131.168-.112.074 0 .167.037.28.112.111.055.251.12.419.195a.644.644 0 0 0 .223.056.454.454 0 0 1 .224 0c.075 0 .159.019.252.056.112.037.242.112.391.224.112.093.205.14.28.14a.302.302 0 0 0 .224-.084.556.556 0 0 0 .168-.196c.055-.075.102-.14.14-.196a.275.275 0 0 1 .251-.14c.112 0 .215.047.308.14.112.15.195.252.251.308a.479.479 0 0 1 .14.14c.037.018.056.037.056.056l.028.084c.28.838.522 1.715.727 2.628.224.914.448 1.958.671 3.132.243 1.175.522 2.536.84 4.083.316 1.53.717 3.338 1.202 5.426.801 3.542 1.5 6.525 2.097 8.948.597 2.405 1.1 4.214 1.51 5.426.373-.858.82-1.902 1.343-3.132a216.6 216.6 0 0 0 1.706-4 501.582 501.582 0 0 1 1.873-4.502 2907.92 2907.92 0 0 0 3.747-9.033 181.018 181.018 0 0 0 1.567-3.775 1757.334 1757.334 0 0 0 1.79-4.307c.111-.26.195-.475.251-.643a1.29 1.29 0 0 1 .252-.391c.056-.15.13-.252.224-.308a.361.361 0 0 1 .363-.028.351.351 0 0 0 .14.084.438.438 0 0 0 .112.084.19.19 0 0 1 .14.056c.018-.093.056-.14.111-.14a.62.62 0 0 1 .196-.028c.075.019.159.037.252.056h.196a.704.704 0 0 1 .167-.084c.056-.037.112-.028.168.028.168.093.28.103.336.028.074-.093.186-.14.335-.14.094 0 .177-.01.252-.028l.168-.056a.27.27 0 0 0 .112-.14c.074 0 .13.01.167.028.056.02.103.038.14.056l.084.084c.056.075.14.401.252.98.112.558.233 1.257.363 2.096.15.82.29 1.716.42 2.685.149.97.28 1.892.391 2.769a391.433 391.433 0 0 1 .615 5.705l.504 4.866c.186 1.79.373 3.598.56 5.425.186 1.827.363 3.617.53 5.37.169 1.733.308 3.29.42 4.67.13 1.379.224 2.516.28 3.411.074.876.102 1.37.084 1.482ZM63.122 24.418c.018.653-.038 1.454-.168 2.405-.13.933-.28 1.94-.447 3.02a137.197 137.197 0 0 0-.476 3.272 23.96 23.96 0 0 0-.224 3.16c0 .653.047 1.278.14 1.874.093.578.252 1.081.476 1.51.13.243.195.457.195.644.019.186.01.354-.028.503-.037.13-.074.242-.112.336a.436.436 0 0 0 0 .307c.038.093.029.196-.027.308a.888.888 0 0 1-.252.335.83.83 0 0 1-.392.224.362.362 0 0 1-.363-.028c-.205-.13-.373-.205-.504-.224a.853.853 0 0 0-.307 0l-.224.112c-.056.038-.13.038-.224 0a22.346 22.346 0 0 1-1.034-.587c-.373-.224-.616-.466-.727-.727-.075-.112-.15-.299-.224-.56a17.505 17.505 0 0 1-.168-.922 81.52 81.52 0 0 1-.112-1.147 27.91 27.91 0 0 1-.084-1.202c-.615 1.156-1.277 2.116-1.985 2.88-.69.764-1.39 1.37-2.098 1.818-.69.466-1.38.792-2.07.979-.67.186-1.285.28-1.845.28-.578 0-1.09-.075-1.538-.224-.429-.15-.764-.327-1.007-.532-.913-.913-1.566-1.65-1.957-2.21-.373-.577-.54-1.043-.503-1.397a9.185 9.185 0 0 1 .866-3.3 12.46 12.46 0 0 1 1.818-2.769 14.908 14.908 0 0 1 2.433-2.293 24.31 24.31 0 0 1 2.769-1.818c.95-.54 1.883-.988 2.796-1.342a27.82 27.82 0 0 1 2.49-.895 70.839 70.839 0 0 0-.14-2.629c-.038-.764-.103-1.323-.197-1.678-.28-1.155-.708-2.013-1.286-2.572a2.857 2.857 0 0 0-2.097-.867c-.522 0-1.054.195-1.594.587-.522.392-.998.923-1.427 1.594a9.854 9.854 0 0 0-1.062 2.321c-.261.876-.401 1.8-.42 2.769 0 .242.01.475.028.699.019.224.047.457.084.699.019.13-.028.224-.14.28a1.346 1.346 0 0 1-.363.14c-.15.018-.308.037-.476.055a2.078 2.078 0 0 0-.42.084 4.242 4.242 0 0 1-.223.084.526.526 0 0 1-.168-.028 3.392 3.392 0 0 1-.223-.168 3.294 3.294 0 0 0-.336-.28 2.444 2.444 0 0 0-.475-.279 7.97 7.97 0 0 0-.42-.196 4.069 4.069 0 0 0-.307-.14c-.075-.055-.112-.12-.112-.195 0-1.156.251-2.35.755-3.58a12.93 12.93 0 0 1 2.07-3.356 11.444 11.444 0 0 1 3.02-2.517 7.34 7.34 0 0 1 3.663-.978c1.044 0 1.948.158 2.713.475a6.481 6.481 0 0 1 1.957 1.23c.54.504.979 1.063 1.315 1.678.354.616.624 1.24.81 1.874.206.615.345 1.203.42 1.762.093.54.15.988.168 1.342Zm-5.062 4.978c-.56.205-1.175.476-1.846.811-.67.336-1.351.736-2.041 1.203-.69.447-1.38.969-2.07 1.566a16.223 16.223 0 0 0-1.93 1.985c-.708.84-1.22 1.585-1.537 2.237-.317.653-.513 1.212-.588 1.678-.074.448-.056.802.056 1.063.112.261.243.42.392.475a2.798 2.798 0 0 0 1.79.084c.634-.186 1.258-.503 1.873-.95a12.444 12.444 0 0 0 1.818-1.65 32.662 32.662 0 0 0 1.678-1.986c.522-.69.988-1.361 1.398-2.014.41-.67.746-1.249 1.007-1.733v-2.769ZM81.215 20.699c-.018.54-.074 1.081-.168 1.622a9.872 9.872 0 0 1-.335 1.51c-.15.466-.336.886-.56 1.258a3.18 3.18 0 0 1-.699.895c-.223.187-.4.28-.53.28a.52.52 0 0 1-.337-.112 1.297 1.297 0 0 1-.195-.252.333.333 0 0 0-.224-.167.625.625 0 0 0-.308.028 1.184 1.184 0 0 1-.363 0 .635.635 0 0 1-.336-.196c-.093-.13-.158-.354-.195-.671-.038-.354-.029-.811.028-1.37.074-.579.111-1.138.111-1.678 0-.485-.056-.886-.168-1.203-.093-.336-.27-.503-.53-.503-.131 0-.364.102-.7.307-.317.187-.671.597-1.063 1.23-.391.635-.783 1.557-1.174 2.77-.392 1.192-.709 2.786-.951 4.781 0 2.573.019 4.642.056 6.209.037 1.566.056 2.787.056 3.663 0 .746-.019 1.277-.056 1.594-.037.317-.13.522-.28.615-.093.056-.28.121-.559.196-.261.093-.55.177-.867.252-.298.074-.587.14-.867.196-.28.055-.457.074-.531.055a1.448 1.448 0 0 1-.308-.195 3.605 3.605 0 0 1-.475-.364 5.094 5.094 0 0 1-.42-.475c-.13-.15-.205-.28-.223-.392-.038-.186-.056-.606-.056-1.258.018-.671.028-1.473.028-2.405.018-.932.037-1.948.056-3.048.018-1.12.028-2.228.028-3.328 0-.709.018-1.492.055-2.35l.168-2.656c.075-.895.15-1.771.224-2.629.075-.857.14-1.622.196-2.293.074-.69.13-1.258.168-1.706.055-.466.093-.746.111-.839.019-.149.084-.205.196-.168.13.038.261.103.392.196.149.093.28.177.391.252.112.074.187.074.224 0 .037-.168.177-.187.42-.056.242.112.465.242.67.391.075.094.159.178.252.252.112.056.215.14.308.252a.984.984 0 0 1 .224.391c.074.168.111.392.111.672 0 .26.019.652.056 1.174.038.522.084 1.137.14 1.846.205-.671.448-1.38.727-2.126.299-.745.653-1.426 1.063-2.041a5.869 5.869 0 0 1 1.454-1.566c.56-.41 1.23-.615 2.014-.615.428 0 .857.084 1.286.251.429.168.811.42 1.147.755.354.317.634.709.839 1.175.205.466.298.997.28 1.594ZM106.887 5.458c-.018.391-.074.979-.168 1.762a153.68 153.68 0 0 1-.363 2.796c-.131 1.063-.27 2.256-.42 3.58a169.952 169.952 0 0 0-.755 8.585 92.546 92.546 0 0 0-.111 4.53c0 .784.018 1.669.055 2.657.038.988.075 1.995.112 3.02l.168 2.993c.056.97.103 1.845.14 2.628.037.783.056 1.427.056 1.93 0 .503-.028.792-.084.867a.383.383 0 0 1-.364.14c-.149 0-.298-.019-.447-.056l-.447-.056c-.131-.019-.224.01-.28.084a.851.851 0 0 1-.196.28 1.223 1.223 0 0 1-.335.28.975.975 0 0 1-.42.195.888.888 0 0 1-.531-.056 3.266 3.266 0 0 1-.895-.811c-.261-.336-.42-.774-.476-1.314a17.762 17.762 0 0 1-.139-1.315 699.818 699.818 0 0 1-.112-3.44v-1.845a17.79 17.79 0 0 1-1.594 3.328 13.862 13.862 0 0 1-2.014 2.517 10.637 10.637 0 0 1-2.237 1.733 8.744 8.744 0 0 1-2.321.895c-1.007.205-2.06.187-3.16-.056a10.388 10.388 0 0 1-3.048-1.146 9.913 9.913 0 0 1-2.433-2.042c-.69-.82-1.138-1.724-1.343-2.712-.149-.69-.251-1.361-.307-2.014a21.98 21.98 0 0 1-.084-1.874c0-1.584.196-3.02.587-4.306.392-1.287.895-2.433 1.51-3.44.615-1.025 1.287-1.91 2.014-2.657a18.556 18.556 0 0 1 2.153-1.873c.69-.504 1.305-.886 1.846-1.147.54-.26.932-.42 1.174-.475.448-.13.895-.215 1.343-.252.447-.037.876-.056 1.286-.056.82 0 1.585.084 2.293.252.709.168 1.352.382 1.93.643.596.261 1.118.55 1.566.867.466.317.867.615 1.202.895l.168-3.356c.056-1.119.112-2.181.168-3.188.074-1.007.14-1.939.196-2.797.074-.857.158-1.584.251-2.18.149-1.008.289-1.875.42-2.602a46.58 46.58 0 0 1 .419-1.873c.149-.54.289-.998.42-1.37.149-.373.289-.7.419-.98.075-.074.196-.111.364-.111.186-.019.391 0 .615.056.224.037.457.102.699.195.243.094.466.206.671.336.187.13.345.27.476.42.13.149.233.344.307.587.075.242.112.55.112.923.019.373 0 .848-.056 1.426Zm-6.068 18.457c0-.242.009-.503.028-.783.018-.298.046-.578.084-.84-.149.131-.289.253-.42.364a1.111 1.111 0 0 0-.251.28c-.41.466-.69.727-.84.783-.149.037-.307-.028-.475-.196-1.268-1.267-2.489-2.125-3.663-2.572-1.156-.466-2.21-.7-3.16-.7-.634 0-1.194.075-1.678.224-.466.13-.84.28-1.119.448-.503.298-.96.755-1.37 1.37a9.793 9.793 0 0 0-1.063 2.07c-.28.782-.503 1.63-.671 2.544-.15.895-.224 1.79-.224 2.685 0 .95.094 1.864.28 2.74.205.877.522 1.65.95 2.322a4.74 4.74 0 0 0 1.679 1.594c.69.372 1.528.54 2.516.503 1.082-.056 2.06-.317 2.937-.783a8.955 8.955 0 0 0 2.377-1.79 11.367 11.367 0 0 0 1.818-2.46c.503-.914.922-1.837 1.258-2.77.336-.931.587-1.836.755-2.712.168-.876.252-1.65.252-2.321ZM130.014 29.005c0 1.957-.289 3.719-.866 5.285-.56 1.566-1.333 2.9-2.322 3.999a10.187 10.187 0 0 1-3.383 2.545 9.595 9.595 0 0 1-4.083.895 9.555 9.555 0 0 1-1.958-.224 9.343 9.343 0 0 1-2.125-.671 10.095 10.095 0 0 1-2.07-1.259 8.469 8.469 0 0 1-1.789-1.93c-.522-.764-.942-1.659-1.259-2.684-.298-1.025-.438-2.21-.419-3.551 0-1.53.186-2.918.559-4.167.373-1.268.848-2.396 1.426-3.384.597-1.007 1.268-1.874 2.014-2.6a14.684 14.684 0 0 1 2.237-1.819c.746-.503 1.463-.876 2.153-1.118.69-.242 1.287-.382 1.79-.42.261-.018.373.01.336.084-.019.075-.084.159-.196.252a4.516 4.516 0 0 0-.308.28c-.074.093-.037.149.112.167.131.038.233.075.308.112.093.038.186.084.279.14l.224-.252a.641.641 0 0 1 .364-.14.9.9 0 0 1 .335.056c.093.02.168.029.224.029.056 0 .093-.056.112-.168.037-.205.102-.317.196-.336.111-.037.354-.056.727-.056.223 0 .559.065 1.006.196.466.13.97.354 1.511.671a8.4 8.4 0 0 1 1.677 1.287c.578.521 1.1 1.193 1.566 2.013.485.802.877 1.762 1.175 2.88.298 1.119.447 2.415.447 3.888Zm-10.095-8.194c-.652.391-1.296.923-1.93 1.594a13.246 13.246 0 0 0-1.733 2.32 13.46 13.46 0 0 0-1.231 2.937 12.067 12.067 0 0 0-.475 3.412c0 1.286.112 2.452.335 3.496.243 1.044.588 1.939 1.035 2.684.447.727.988 1.296 1.622 1.706.653.392 1.389.587 2.209.587.727 0 1.445-.205 2.154-.615.727-.41 1.37-1.025 1.929-1.846.559-.82 1.007-1.836 1.342-3.048.355-1.211.532-2.62.532-4.222 0-1.622-.215-2.983-.643-4.083-.429-1.1-.914-1.986-1.455-2.657-.522-.69-1.025-1.175-1.51-1.454-.484-.299-.783-.448-.895-.448h-.615c-.13 0-.354-.12-.671-.363ZM151.156 39.603c0 .224-.084.476-.252.755a.725.725 0 0 1-.671.392.529.529 0 0 1-.391-.14c-.093-.093-.187-.14-.28-.14a.67.67 0 0 0-.391.14c-.112.093-.308.14-.588.14-.372 0-.699-.13-.978-.392a3.37 3.37 0 0 1-.644-1.034 7.837 7.837 0 0 1-.391-1.37 9.526 9.526 0 0 1-.112-1.399c0-.839.028-1.79.084-2.852l.224-3.3c.093-1.137.167-2.265.223-3.384a46.61 46.61 0 0 0 .112-3.104c0-1.268-.084-2.256-.251-2.964-.168-.709-.467-1.063-.895-1.063-.411.056-.83.41-1.259 1.063-.429.652-.867 1.491-1.314 2.517a38.348 38.348 0 0 0-1.315 3.44 141.056 141.056 0 0 0-1.258 3.914c-.391 1.324-.764 2.62-1.119 3.887l-.95 3.356c-.28.988-.522 1.79-.727 2.405-.206.597-.345.895-.42.895-.149 0-.261-.037-.336-.112a2.1 2.1 0 0 1-.223-.195 1.274 1.274 0 0 0-.224-.224c-.093-.056-.233-.084-.419-.084-.168 0-.28.019-.336.056a4.67 4.67 0 0 0-.196.14.978.978 0 0 1-.279.14c-.112.037-.308.056-.588.056a2.23 2.23 0 0 1-1.006-.252c-.317-.168-.476-.429-.476-.783 0-.224.037-.68.112-1.37.075-.709.158-1.567.252-2.573.112-1.026.223-2.163.335-3.412.131-1.268.243-2.573.336-3.915.112-1.343.205-2.685.279-4.027.075-1.342.112-2.62.112-3.831 0-.597-.009-1.147-.028-1.65a43.21 43.21 0 0 1-.028-1.483c0-.111.056-.167.168-.167.224 0 .392.046.504.14a.75.75 0 0 1 .279.251.539.539 0 0 1 .084.28c.019.074.037.112.056.112.056 0 .121-.028.196-.084l.224-.224c.093-.075.177-.14.251-.196.075-.074.14-.111.196-.111h.28c.279 0 .475-.038.587-.112a.744.744 0 0 0 .224-.28 1.38 1.38 0 0 0 .111-.28c.019-.093.075-.14.168-.14.056 0 .131.047.224.14.112.075.214.215.308.42.111.186.205.438.279.755.075.317.112.699.112 1.146 0 .597-.028 1.352-.084 2.266a94.485 94.485 0 0 1-.168 2.936l-.167 3.132a88.407 88.407 0 0 0-.112 2.853c.205-.802.447-1.688.727-2.657.298-.988.634-1.986 1.007-2.992a46.297 46.297 0 0 1 1.258-2.937c.448-.97.932-1.827 1.454-2.573.522-.745 1.072-1.342 1.65-1.79.578-.466 1.184-.699 1.818-.699 1.007 0 1.827.187 2.461.56a4.065 4.065 0 0 1 1.538 1.538c.373.652.625 1.417.755 2.293.149.876.224 1.818.224 2.825 0 .857-.038 1.761-.112 2.712-.075.932-.159 1.874-.252 2.825-.074.932-.149 1.855-.224 2.768a42.962 42.962 0 0 0-.083 2.573c0 .988.056 1.883.167 2.685.112.783.168 1.38.168 1.79ZM162.482 17.315c-.037.13-.065.392-.084.783-.018.392-.046.876-.084 1.454a21.38 21.38 0 0 1 2.461-.531 16.72 16.72 0 0 1 2.573-.196c.969 0 1.939.112 2.908.336.97.205 1.874.568 2.713 1.09.653.392 1.203 1.016 1.65 1.874.466.858.848 1.78 1.147 2.769.167.578.335 1.22.503 1.93.168.69.252 1.453.252 2.292a9.34 9.34 0 0 1-.28 2.21c-.168.764-.475 1.556-.923 2.377-.447.801-1.053 1.631-1.818 2.489-.764.839-1.743 1.687-2.936 2.544-1.156.84-2.191 1.483-3.104 1.93-.895.429-1.659.727-2.293.895-.634.168-1.128.242-1.482.224-.336 0-.532-.019-.588-.056-.167-.112-.335-.326-.503-.643a6.554 6.554 0 0 0-.699-.98 4.097 4.097 0 0 1-.252-.335l-.252-.447c-.055 1.79-.102 3.542-.139 5.257a435.257 435.257 0 0 0-.028 4.81c0 .932.009 1.8.028 2.601.018.82.046 1.557.083 2.21 0 .242.01.475.028.698.038.243.047.457.028.644a.8.8 0 0 1-.111.447c-.075.112-.215.168-.42.168-.373 0-.662.084-.867.252a6.54 6.54 0 0 0-.671.838 1.416 1.416 0 0 1-.475.364.54.54 0 0 1-.532 0c-.168-.075-.345-.252-.531-.531-.168-.261-.326-.662-.475-1.203a9.898 9.898 0 0 1-.168-.895c-.038-.354-.075-.81-.112-1.37-.019-.54-.037-1.203-.056-1.986v-2.74l.112-9.676c.037-2.442.13-4.82.279-7.131.15-2.312.327-4.484.532-6.516a9.282 9.282 0 0 1-1.287.42c-.391.093-.634.111-.727.055-.186-.074-.307-.158-.363-.251a.962.962 0 0 1-.112-.252.636.636 0 0 0-.084-.224c-.019-.074-.093-.121-.224-.14a.577.577 0 0 1-.335-.167.837.837 0 0 1-.196-.28.38.38 0 0 1 .028-.252c.056-.093.158-.149.308-.168.13-.018.149-.065.055-.14a2.66 2.66 0 0 1-.279-.335.83.83 0 0 1-.056-.531c.037-.224.27-.476.699-.755.224-.187.615-.42 1.175-.7.559-.298 1.23-.624 2.013-.978.205-1.454.41-2.638.615-3.552.224-.932.42-1.5.588-1.706.093-.093.158-.177.195-.251a2.01 2.01 0 0 1 .112-.196.496.496 0 0 1 .14-.14c.056-.037.158-.075.308-.112.13-.018.242.01.335.084.093.075.177.177.252.308l.279.335a.53.53 0 0 0 .336.196.838.838 0 0 1 .615.42c.168.223.233.577.196 1.062Zm5.369 5.453c-.839 0-1.733.094-2.684.28-.951.186-2.004.494-3.16.923l-.504 12.137c.168.056.355.093.56.112h.699c.615 0 1.323-.084 2.125-.252.82-.168 1.65-.42 2.489-.755a20.758 20.758 0 0 0 2.489-1.259 11.173 11.173 0 0 0 2.181-1.733 8.073 8.073 0 0 0 1.566-2.182 6.175 6.175 0 0 0 .615-2.628 3.3 3.3 0 0 0-.391-1.65c-.261-.56-.662-1.063-1.203-1.51-.522-.448-1.183-.802-1.985-1.063-.802-.28-1.734-.42-2.797-.42ZM199.76 29.005c0 1.957-.289 3.719-.867 5.285-.56 1.566-1.333 2.9-2.321 3.999a10.2 10.2 0 0 1-3.384 2.545 9.595 9.595 0 0 1-4.083.895 9.555 9.555 0 0 1-1.958-.224 9.343 9.343 0 0 1-2.125-.671 10.088 10.088 0 0 1-2.069-1.259 8.45 8.45 0 0 1-1.79-1.93c-.522-.764-.942-1.659-1.259-2.684-.298-1.025-.438-2.21-.419-3.551 0-1.53.186-2.918.559-4.167.373-1.268.848-2.396 1.426-3.384.597-1.007 1.268-1.874 2.014-2.6a14.733 14.733 0 0 1 2.237-1.819c.746-.503 1.464-.876 2.153-1.118.69-.242 1.287-.382 1.79-.42.261-.018.373.01.336.084-.019.075-.084.159-.196.252a4.767 4.767 0 0 0-.308.28c-.074.093-.037.149.112.167.131.038.233.075.308.112.093.038.186.084.28.14l.223-.252a.641.641 0 0 1 .364-.14.9.9 0 0 1 .335.056c.094.02.168.029.224.029.056 0 .093-.056.112-.168.037-.205.103-.317.196-.336.112-.037.354-.056.727-.056.224 0 .559.065 1.007.196.466.13.969.354 1.51.671.559.317 1.118.746 1.678 1.287.578.521 1.1 1.193 1.566 2.013.484.802.876 1.762 1.174 2.88.299 1.119.448 2.415.448 3.888Zm-10.096-8.194c-.652.391-1.295.923-1.929 1.594a13.2 13.2 0 0 0-1.734 2.32 13.46 13.46 0 0 0-1.231 2.937 12.067 12.067 0 0 0-.475 3.412c0 1.286.112 2.452.336 3.496.242 1.044.587 1.939 1.034 2.684.448.727.988 1.296 1.622 1.706.653.392 1.389.587 2.209.587.728 0 1.445-.205 2.154-.615.727-.41 1.37-1.025 1.929-1.846.56-.82 1.007-1.836 1.343-3.048.354-1.211.531-2.62.531-4.222 0-1.622-.214-2.983-.643-4.083-.429-1.1-.914-1.986-1.454-2.657-.522-.69-1.026-1.175-1.51-1.454-.485-.299-.784-.448-.895-.448h-.616c-.13 0-.354-.12-.671-.363ZM209.324 3.472c0 .261-.019.774-.056 1.538a632.85 632.85 0 0 1-.336 6.292 272.151 272.151 0 0 1-.196 3.832 324.474 324.474 0 0 0-.195 3.691 123.8 123.8 0 0 0-.112 3.132 45.99 45.99 0 0 0-.084 1.79v5.202l.056 3.16c.019 1.044.037 2.05.056 3.02.037.95.065 1.808.084 2.573.018.764.028 1.407.028 1.93.018.503.028.82.028.95 0 .261-.047.457-.14.587a.5.5 0 0 1-.308.28.486.486 0 0 1-.363.028.89.89 0 0 1-.336-.112 1.07 1.07 0 0 1-.28-.196 1.575 1.575 0 0 0-.139-.167c-.038-.038-.075-.047-.112-.028-.019.018-.038.093-.056.223-.056.485-.168.849-.336 1.091-.149.242-.317.4-.503.476-.168.093-.326.12-.476.083-.149-.037-.242-.102-.279-.195a.256.256 0 0 0-.196-.168 5.383 5.383 0 0 0-.252-.056.538.538 0 0 1-.279-.084c-.075-.037-.121-.13-.14-.28-.149-.634-.242-1.435-.28-2.405a89.644 89.644 0 0 1-.056-3.328c0-1.062.01-2.209.028-3.44.019-1.23.028-2.488.028-3.775v-2.209c0-.746-.018-1.5-.056-2.265V22.88c0-1.51.038-3.02.112-4.53a142.6 142.6 0 0 1 .28-4.39c.112-1.399.233-2.713.363-3.944.131-1.23.243-2.32.336-3.272.093-.95.168-1.724.224-2.32.056-.597.074-.97.056-1.12-.019-.13-.01-.223.028-.28a.266.266 0 0 1 .195-.083c.094-.019.187-.028.28-.028a1.01 1.01 0 0 0 .252-.084c.13-.074.233-.093.307-.056a.423.423 0 0 1 .224.112.739.739 0 0 1 .14.196c.056.056.13.084.224.084a.66.66 0 0 0 .251-.084c.075-.056.131-.103.168-.14l.14-.14a.236.236 0 0 1 .196-.028c.149.038.289.065.419.084.149 0 .224-.028.224-.084.037-.149.093-.214.168-.196.074 0 .167.047.279.14.112.094.205.196.28.308.074.093.112.242.112.447ZM244.644 2.717c-.615 0-1.408.112-2.377.336-.951.224-1.967.615-3.048 1.174-1.082.56-2.163 1.305-3.244 2.238-1.082.913-2.061 2.07-2.937 3.467-.857 1.399-1.566 3.058-2.125 4.978-.541 1.902-.811 4.12-.811 6.656 0 2.05.205 3.878.615 5.481.429 1.585.998 2.974 1.706 4.167.708 1.193 1.519 2.21 2.433 3.048.932.82 1.902 1.492 2.908 2.014 1.026.503 2.042.866 3.049 1.09 1.025.224 1.994.336 2.908.336h.587c.205 0 .41-.019.615-.056.392-.112.849-.261 1.371-.448a10.92 10.92 0 0 0 3.384-1.93 8.233 8.233 0 0 0 1.51-1.677 9.415 9.415 0 0 0 1.146-2.293c.299-.858.466-1.846.504-2.965.018-1.025-.103-1.817-.364-2.377-.242-.578-.503-1.016-.783-1.314l-1.566.196c-.82.112-1.659.27-2.517.475-.857.205-1.668.41-2.433.615a88.26 88.26 0 0 1-2.069.532c-.616.149-1.1.214-1.454.195a3.427 3.427 0 0 1-.783-.14 4.006 4.006 0 0 1-.7-.251 1.694 1.694 0 0 1-.559-.531.477.477 0 0 1-.224.084.307.307 0 0 1-.139-.028.167.167 0 0 1-.112-.112 2.264 2.264 0 0 1-.056-.196 3.965 3.965 0 0 1-.056-.755.57.57 0 0 1-.308-.112.509.509 0 0 1-.14-.14 5.296 5.296 0 0 1-.251-.447c-.075-.15-.066-.28.028-.392.037-.074.195-.186.475-.335.28-.168.755-.364 1.426-.588.671-.223 1.576-.475 2.713-.755 1.156-.298 2.629-.624 4.418-.978 2.312-.43 4.316-.718 6.013-.867 1.696-.15 3.076-.224 4.139-.224.596 0 1.081.019 1.454.056.373.018.652.047.839.084.429.093.774.233 1.035.42.261.167.466.325.615.475.074.074.149.167.224.28.13.167.289.475.475.922.205.075.345.187.419.336.038.074.047.14.028.196-.037.167-.083.391-.139.67-.056.28-.14.42-.252.42-.056.019-.252.037-.587.056a190.816 190.816 0 0 0-3.16.224c-.69.037-1.427.093-2.21.168.373.428.69.941.951 1.538.261.596.438 1.249.531 1.957.131.914.038 1.883-.279 2.909-.298 1.025-.774 2.041-1.426 3.048-.634 1.007-1.436 1.976-2.405 2.908a17.99 17.99 0 0 1-3.272 2.433 17.551 17.551 0 0 1-3.915 1.65c-1.417.41-2.9.615-4.447.615a21.59 21.59 0 0 1-2.824-.195 18.51 18.51 0 0 1-2.993-.672 22.068 22.068 0 0 1-3.132-1.314 19.908 19.908 0 0 1-3.132-2.041c-1.995-1.548-3.477-3.543-4.446-5.985-.97-2.46-1.436-5.472-1.399-9.033 0-1.51.243-3.076.727-4.698a23.277 23.277 0 0 1 2.098-4.754 27.337 27.337 0 0 1 3.244-4.446 24.945 24.945 0 0 1 4.195-3.748 21.818 21.818 0 0 1 4.977-2.6 17.776 17.776 0 0 1 5.593-1.12c.616 0 1.324.047 2.126.14.82.094 1.659.252 2.517.476.876.205 1.734.476 2.572.811.839.336 1.604.746 2.294 1.23a6.988 6.988 0 0 1 1.761 1.706 4.67 4.67 0 0 1 .867 2.182c.131.95.066 1.808-.195 2.573-.243.764-.588 1.407-1.035 1.93-.429.521-.895.922-1.398 1.202-.504.26-.942.382-1.315.363a4.118 4.118 0 0 1-.671.364 2.06 2.06 0 0 1-.503.14.795.795 0 0 1-.42 0 .772.772 0 0 1-.307-.224.976.976 0 0 1-.168-.308c-.019-.13.018-.298.112-.503-.41.447-.755.774-1.035.979-.261.205-.475.345-.643.42-.205.074-.364.092-.476.055-.167-.112-.205-.214-.111-.308.111-.093.289-.233.531-.42.242-.185.522-.437.839-.754.317-.336.596-.783.839-1.343a14.5 14.5 0 0 0 .307-1.342 7.19 7.19 0 0 0 .168-1.566c0-1.025-.186-1.901-.559-2.629a5.038 5.038 0 0 0-1.51-1.79c-.615-.465-1.343-.801-2.182-1.006a11.265 11.265 0 0 0-2.684-.308ZM281.418 24.418c.019.653-.037 1.454-.168 2.405-.13.933-.279 1.94-.447 3.02a140.826 140.826 0 0 0-.476 3.272 23.989 23.989 0 0 0-.223 3.16c0 .653.046 1.278.14 1.874.093.578.251 1.081.475 1.51.13.243.196.457.196.644.018.186.009.354-.028.503-.038.13-.075.242-.112.336a.44.44 0 0 0 0 .307c.037.093.028.196-.028.308a.887.887 0 0 1-.252.335.83.83 0 0 1-.391.224.362.362 0 0 1-.364-.028c-.205-.13-.373-.205-.503-.224a.855.855 0 0 0-.308 0l-.224.112c-.055.038-.13.038-.223 0a22.45 22.45 0 0 1-1.035-.587c-.373-.224-.615-.466-.727-.727-.075-.112-.149-.299-.224-.56a17.477 17.477 0 0 1-.168-.922 82.162 82.162 0 0 1-.111-1.147c-.038-.41-.066-.81-.084-1.202-.616 1.156-1.277 2.116-1.986 2.88-.69.764-1.389 1.37-2.097 1.818-.69.466-1.38.792-2.07.979-.671.186-1.286.28-1.845.28-.578 0-1.091-.075-1.539-.224-.428-.15-.764-.327-1.006-.532-.914-.913-1.566-1.65-1.958-2.21-.373-.577-.54-1.043-.503-1.397a9.175 9.175 0 0 1 .867-3.3 12.437 12.437 0 0 1 1.817-2.769 14.98 14.98 0 0 1 2.433-2.293 24.377 24.377 0 0 1 2.769-1.818c.951-.54 1.883-.988 2.797-1.342a27.843 27.843 0 0 1 2.488-.895 70.143 70.143 0 0 0-.139-2.629c-.038-.764-.103-1.323-.196-1.678-.28-1.155-.709-2.013-1.287-2.572a2.857 2.857 0 0 0-2.097-.867c-.522 0-1.053.195-1.594.587-.522.392-.997.923-1.426 1.594a9.863 9.863 0 0 0-1.063 2.321c-.261.876-.401 1.8-.419 2.769 0 .242.009.475.028.699.018.224.046.457.084.699.018.13-.028.224-.14.28a1.364 1.364 0 0 1-.364.14c-.149.018-.307.037-.475.055a2.082 2.082 0 0 0-.42.084 4.512 4.512 0 0 1-.223.084.528.528 0 0 1-.168-.028 3.305 3.305 0 0 1-.224-.168 3.252 3.252 0 0 0-.336-.28 2.432 2.432 0 0 0-.475-.279 8.078 8.078 0 0 0-.419-.196 4.145 4.145 0 0 0-.308-.14c-.075-.055-.112-.12-.112-.195 0-1.156.252-2.35.755-3.58a12.922 12.922 0 0 1 2.07-3.356 11.443 11.443 0 0 1 3.02-2.517 7.34 7.34 0 0 1 3.663-.978c1.044 0 1.948.158 2.713.475a6.475 6.475 0 0 1 3.272 2.909c.354.615.624 1.24.811 1.873.205.615.345 1.203.419 1.762.093.54.149.988.168 1.342Zm-5.062 4.978c-.559.205-1.174.476-1.845.811-.672.336-1.352.736-2.042 1.203-.69.447-1.379.969-2.069 1.566a16.241 16.241 0 0 0-1.93 1.985c-.708.84-1.221 1.585-1.538 2.237-.317.653-.513 1.212-.587 1.678-.075.448-.056.802.056 1.063.112.261.242.42.391.475a2.798 2.798 0 0 0 1.79.084c.634-.186 1.258-.503 1.874-.95a12.43 12.43 0 0 0 1.817-1.65 32.52 32.52 0 0 0 1.678-1.986c.522-.69.988-1.361 1.399-2.014.41-.67.745-1.249 1.006-1.733v-2.769ZM313.606 38.904c.056.15.093.27.112.364a.754.754 0 0 1 .056.28c0 .167-.075.27-.224.307-.13.019-.27.047-.419.084-.038.019-.075.112-.112.28-.038.149-.093.317-.168.503a1.194 1.194 0 0 1-.308.503c-.13.15-.317.224-.559.224-.783-.056-1.398-.233-1.846-.531a2.584 2.584 0 0 1-1.006-1.175c-.224-.503-.364-1.1-.42-1.79a29.99 29.99 0 0 1-.084-2.349c0-1.006.037-2.06.112-3.16.093-1.1.196-2.172.308-3.216.112-1.044.205-2.023.279-2.936.094-.932.14-1.725.14-2.377 0-.95-.084-1.687-.252-2.21-.149-.521-.363-.782-.643-.782-.13 0-.466.391-1.006 1.174-.541.765-1.194 1.93-1.958 3.496-.746 1.566-1.557 3.533-2.433 5.9-.858 2.368-1.678 5.146-2.461 8.334-.037.13-.056.27-.056.42 0 .149-.009.289-.028.42a.494.494 0 0 1-.14.279c-.056.093-.149.14-.279.14-.261 0-.466-.056-.616-.168a2.201 2.201 0 0 1-.391-.308 5.794 5.794 0 0 0-.308-.335.45.45 0 0 0-.363-.168c-.056 0-.103.037-.14.112l-.14.28a1.289 1.289 0 0 1-.196.251.414.414 0 0 1-.307.112c-.112 0-.233-.019-.364-.056-.13-.056-.261-.177-.391-.364-.131-.205-.243-.494-.336-.867-.074-.391-.112-.913-.112-1.566v-1.258c0-.261.028-.662.084-1.203.056-.559.112-1.202.168-1.93.074-.726.149-1.51.224-2.348.093-.858.167-1.725.223-2.601.075-.876.131-1.734.168-2.573a34.68 34.68 0 0 0 .084-2.293c0-2.107-.261-3.16-.783-3.16-.13 0-.28.047-.447.14-.168.093-.373.289-.616.587-.223.28-.494.69-.811 1.23-.298.523-.643 1.231-1.034 2.126-.373.876-.811 1.957-1.315 3.244a116.016 116.016 0 0 0-1.622 4.586c-.13.392-.279.97-.447 1.734-.149.746-.289 1.51-.42 2.293a82.83 82.83 0 0 0-.335 2.181c-.075.653-.112 1.082-.112 1.287 0 .056-.103.149-.308.28-.186.111-.41.223-.671.335a5.938 5.938 0 0 1-.811.28c-.261.093-.466.14-.615.14-.317 0-.559-.094-.727-.28-.168-.168-.298-.485-.392-.95-.074-.486-.121-1.138-.14-1.959v-3.215c0-.336.01-.998.028-1.986a181.943 181.943 0 0 1 .448-7.439c.112-1.417.242-2.712.391-3.887.15-1.175.327-2.144.532-2.908.205-.765.438-1.147.699-1.147.13 0 .252.047.363.14.112.093.215.196.308.308.093.093.177.186.252.28.093.092.186.139.279.139.075 0 .15-.037.224-.112a.953.953 0 0 0 .224-.252c.074-.111.14-.205.196-.28.074-.074.13-.111.167-.111.056 0 .14.093.252.28.112.186.214.41.308.67.112.243.205.504.279.784.094.26.14.466.14.615 0 .373-.037.904-.112 1.594-.056.69-.13 1.454-.223 2.293-.075.82-.15 1.66-.224 2.517-.056.858-.084 1.65-.084 2.377v.112c.242-.802.522-1.622.839-2.46.335-.858.699-1.688 1.091-2.49.391-.82.801-1.594 1.23-2.321.447-.727.914-1.36 1.398-1.902.485-.54.979-.97 1.482-1.286.504-.317 1.016-.475 1.539-.475.633 0 1.174.111 1.622.335a2.66 2.66 0 0 1 1.118.895c.28.373.485.811.615 1.314.131.485.196 1.007.196 1.567 0 .484-.037 1.044-.112 1.677-.056.634-.121 1.343-.196 2.126-.074.764-.149 1.612-.223 2.545-.056.913-.093 1.91-.112 2.992l.867-2.405c.354-.951.736-1.93 1.146-2.936a86.68 86.68 0 0 1 1.343-2.993c.484-.988.969-1.873 1.454-2.657.485-.782.969-1.416 1.454-1.901.503-.485.979-.727 1.426-.727.131 0 .42.046.867.14.466.074.951.195 1.454.363a7.21 7.21 0 0 1 1.455.587c.447.224.745.485.895.784.149.316.279.764.391 1.342.131.56.196 1.314.196 2.265 0 .839-.065 1.846-.196 3.02-.112 1.156-.317 2.554-.615 4.195-.093.54-.159 1.063-.196 1.566-.019.503-.028.998-.028 1.482 0 .709.028 1.37.084 1.986.075.615.158 1.165.252 1.65.093.484.186.904.279 1.258.094.336.177.569.252.7ZM336.537 30.599c0 .205.01.447.028.727.019.28.028.596.028.95 0 .448-.065 1.007-.195 1.678a11.332 11.332 0 0 1-.644 2.07 11.122 11.122 0 0 1-1.146 2.181 8.869 8.869 0 0 1-1.79 1.958c-.708.578-1.547 1.044-2.517 1.398-.951.373-2.041.56-3.272.56-1.1 0-2.228-.215-3.383-.644-1.138-.41-2.182-1.053-3.133-1.93-.932-.894-1.705-2.022-2.321-3.383-.596-1.38-.895-3.02-.895-4.922 0-1.193.15-2.368.448-3.524a18.55 18.55 0 0 1 1.23-3.272 16.25 16.25 0 0 1 1.818-2.824 14.832 14.832 0 0 1 2.209-2.238 10.372 10.372 0 0 1 2.405-1.482c.839-.354 1.65-.531 2.433-.531 1.361 0 2.48.215 3.356.643.895.429 1.603.96 2.125 1.594a5.578 5.578 0 0 1 1.091 2.042c.224.708.336 1.351.336 1.93 0 .559-.14 1.202-.42 1.929-.261.708-.699 1.389-1.314 2.041-.615.634-1.417 1.175-2.405 1.622-.988.43-2.2.644-3.636.644-.764 0-1.454-.103-2.069-.308a7.503 7.503 0 0 1-1.594-.811 7.55 7.55 0 0 1-1.203-1.063 14.881 14.881 0 0 1-.811-1.09c-.335 1.155-.503 2.507-.503 4.055 0 1.062.149 2.022.447 2.88.317.839.746 1.557 1.287 2.153a5.456 5.456 0 0 0 1.929 1.37c.746.318 1.567.476 2.461.476 1.119 0 2.098-.186 2.937-.56a8.245 8.245 0 0 0 2.181-1.453 10.15 10.15 0 0 0 1.622-1.874c.466-.69.867-1.315 1.203-1.874.335-.578.624-1.053.866-1.426.261-.373.513-.55.756-.531.111 0 .167.093.167.28a1.485 1.485 0 0 1-.112.56Zm-8.417-10.404c-.336 0-.774.075-1.314.224-.522.13-1.082.373-1.678.727-.578.355-1.156.84-1.734 1.454-.578.597-1.082 1.361-1.51 2.294l.671-.336c.205-.093.345-.14.419-.14.038 0 .094.038.168.112.429.727.96 1.25 1.594 1.566.653.299 1.38.448 2.181.448.634 0 1.175-.103 1.622-.308a3.584 3.584 0 0 0 1.147-.839c.298-.335.513-.7.643-1.09a3.94 3.94 0 0 0 .196-1.203c0-.839-.214-1.529-.643-2.07-.429-.559-1.016-.838-1.762-.838ZM357.651 18.825a.744.744 0 0 1 .084.336c.019.112.028.242.028.391 0 .597-.317 1.221-.951 1.874-.615.652-1.594 1.25-2.936 1.79-.28.112-.531.168-.755.168-.28 0-.522-.075-.727-.224-.187-.168-.28-.336-.28-.503 0-.112.065-.243.196-.392l.447-.448c.168-.149.317-.288.448-.419.149-.13.223-.233.223-.308 0-.149-.121-.223-.363-.223-.373 0-.848.112-1.426.335-.578.205-1.194.485-1.846.84-.634.335-1.286.708-1.958 1.118-.652.391-1.239.783-1.761 1.174-.522.373-.951.709-1.287 1.007-.317.298-.475.513-.475.643 0 .075.074.112.224.112h.81c.504 0 1.147.028 1.93.084.802.056 1.641.168 2.517.336.876.149 1.752.373 2.629.67.895.28 1.687.663 2.377 1.147a6.249 6.249 0 0 1 1.734 1.762c.447.69.671 1.51.671 2.461 0 .485-.084 1.007-.252 1.566-.149.54-.429 1.1-.839 1.678-.391.56-.932 1.137-1.622 1.734-.69.578-1.566 1.156-2.629 1.734-1.603.857-3.104 1.491-4.502 1.901-1.38.41-2.629.616-3.747.616-1.455 0-2.601-.327-3.44-.98-.839-.652-1.258-1.584-1.258-2.796 0-.895.167-1.659.503-2.293.354-.634.764-1.156 1.23-1.566.466-.429.933-.736 1.399-.923.466-.205.82-.317 1.062-.335.112 0 .205-.01.28-.028.093-.019.186-.028.28-.028.167 0 .251.102.251.307v.28c0 .112.028.215.084.308a.409.409 0 0 1 .084.251c0 .112-.14.28-.419.504-.261.224-.55.485-.867.783-.317.298-.616.615-.895.95-.261.336-.392.662-.392.98 0 .372.299.559.895.559.746 0 1.529-.14 2.349-.42.839-.298 1.65-.671 2.433-1.118.802-.448 1.557-.951 2.265-1.51a22.536 22.536 0 0 0 1.902-1.678c.541-.541.969-1.044 1.286-1.51.317-.485.476-.867.476-1.147 0-.336-.196-.606-.587-.811-.373-.205-.895-.373-1.567-.503a15.084 15.084 0 0 0-2.293-.252 43.539 43.539 0 0 0-2.768-.084c-1.007 0-1.846.046-2.517.14-.653.093-1.053.14-1.203.14-.111 0-.298-.01-.559-.028a2.572 2.572 0 0 1-.755-.252 2.11 2.11 0 0 1-.643-.643c-.187-.28-.28-.68-.28-1.203 0-.354.075-.755.224-1.202.168-.448.447-.923.839-1.427.41-.521.96-1.08 1.65-1.677.708-.597 1.603-1.222 2.684-1.874 1.138-.69 2.2-1.25 3.189-1.678a23.532 23.532 0 0 1 2.712-1.035c.82-.242 1.538-.4 2.153-.475.616-.093 1.1-.14 1.455-.14.839 0 1.463.112 1.873.336.41.205.718.578.923 1.118Z" />
</svg>