<svg fill="none" xmlns="http://www.w3.org/2000/svg" width="247" height="26" viewBox="0 0 504 44">
  <path fill="#fff"
    d="M8.943 23.02v-8.073c0-2.531-.044-4.844-.131-6.938-3.724 0-6.458.087-8.204.261C.463 7.834.39 7.121.39 6.132c0-.553.102-1.003.306-1.353.203-.349.523-.596.96-.741a5.793 5.793 0 0 1 1.309-.262c.407-.058.96-.087 1.658-.087h9.382c4.887 0 8.203-.059 9.949-.175.145.64.218 1.31.218 2.007 0 1.658-1.105 2.488-3.316 2.488H15.88a153.719 153.719 0 0 0-.218 8.072v8.16c0 2.938.349 5.542 1.047 7.811-1.28.407-2.676.611-4.189.611-1.396 0-2.356-.305-2.88-.916-.524-.64-.785-1.586-.785-2.837 0-.436.014-1.294.043-2.574.03-1.28.044-2.386.044-3.317ZM29.405.11c1.105 0 1.963.19 2.575.568.61.378.916 1.12.916 2.225 0 .175-.058 1.455-.175 3.84-.087 2.386-.13 4.175-.13 5.367v1.92c1.832-1.745 3.912-2.618 6.24-2.618 1.977 0 3.607.567 4.887 1.702 1.28 1.134 1.92 2.75 1.92 4.844 0 .058-.03 1.105-.088 3.141-.029 2.037-.043 3.579-.043 4.626 0 2.502.247 4.625.742 6.37a13.053 13.053 0 0 1-3.797.568c-2.327 0-3.49-.887-3.49-2.662 0-1.047.043-2.967.13-5.76.087-2.822.131-4.523.131-5.105 0-1.193-.247-2.08-.742-2.662-.465-.61-1.076-.916-1.833-.916-1.221 0-2.574.712-4.058 2.138.058 3.723.088 6.414.088 8.072 0 2.56.072 4.8.218 6.72-.96.088-1.818.131-2.575.131-2.909 0-4.363-.698-4.363-2.094 0-.116.029-1.12.087-3.011.087-1.92.13-3.913.13-5.978V10.888c0-4.16-.101-7.563-.305-10.21A10.845 10.845 0 0 1 29.405.11ZM53.532 9.841c-1.105 0-2.05-.378-2.836-1.134-.756-.786-1.134-1.775-1.134-2.968 0-1.134.407-2.094 1.221-2.88.815-.785 1.76-1.178 2.837-1.178 1.076 0 1.992.393 2.749 1.178.785.786 1.178 1.746 1.178 2.88 0 1.164-.407 2.139-1.222 2.924-.814.786-1.745 1.178-2.793 1.178Zm.088 1.833c1.105 0 1.963.19 2.574.567.611.378.917 1.12.917 2.226 0 .174-.059 1.454-.175 3.84-.087 2.385-.13 4.174-.13 5.367 0 4.13.246 6.938.741 8.422-1.222.378-2.43.567-3.622.567-1.367 0-2.327-.233-2.88-.698-.523-.495-.785-1.207-.785-2.138 0-.466.014-1.557.043-3.273.059-1.716.088-3.084.088-4.102 0-4.16-.102-7.564-.306-10.21a10.846 10.846 0 0 1 3.535-.568ZM64.39 11.674c1.106 0 1.964.19 2.575.567.611.378.917 1.12.917 2.226v.567a14.64 14.64 0 0 1 2.792-2.53c1.106-.757 2.197-1.136 3.273-1.136.844 0 1.498.204 1.964.611.465.379.698.888.698 1.528 0 1.192-.524 2.356-1.571 3.49-1.018-.64-1.964-.96-2.836-.96-1.28 0-2.779.888-4.495 2.662a98.01 98.01 0 0 0-.13 4.975c0 4.13.246 6.938.741 8.422-1.222.378-2.43.567-3.622.567-1.367 0-2.327-.233-2.88-.698-.524-.495-.785-1.207-.785-2.138 0-.466.014-1.557.043-3.273.059-1.716.088-3.084.088-4.102 0-4.16-.102-7.564-.306-10.21a10.845 10.845 0 0 1 3.535-.568ZM78.105 22.19c0-2.996.828-5.542 2.487-7.636 1.658-2.124 3.723-3.186 6.196-3.186 1.63 0 3.273.495 4.931 1.484.058-1.862.087-3.33.087-4.407 0-3.171-.116-5.76-.349-7.767C92.795.299 93.77.11 94.381.11c2.705 0 4.058.931 4.058 2.793 0 1.716-.073 5.018-.218 9.905-.117 4.888-.175 8.219-.175 9.993 0 4.597.277 7.768.83 9.513-1.397.35-2.532.524-3.404.524-1.222 0-2.095-.219-2.618-.655-.524-.465-.873-1.09-1.048-1.876a9.3 9.3 0 0 1-2.662 1.92c-.989.494-1.934.742-2.836.742-2.24 0-4.175-1.019-5.804-3.055-1.6-2.036-2.4-4.61-2.4-7.724Zm13.44-5.716c-.873-.64-1.775-.96-2.706-.96-1.31 0-2.342.582-3.098 1.745-.757 1.135-1.135 2.648-1.135 4.539 0 2.094.379 3.825 1.135 5.192.756 1.338 1.687 2.008 2.793 2.008 1.28 0 2.312-.437 3.098-1.31-.059-5.992-.088-9.73-.088-11.214ZM112.219 22.452v-8.727c0-3.2-.131-6.502-.393-9.906a16.7 16.7 0 0 1 3.447-.349c1.106 0 2.037.19 2.793.568.786.378 1.178.974 1.178 1.789 0 .145-.058 1.323-.174 3.534-.087 2.211-.131 4.058-.131 5.542 2.356-1.658 4.684-3.593 6.982-5.804 2.298-2.21 3.796-4.189 4.494-5.934 1.368.436 2.284.902 2.749 1.396.466.466.699 1.033.699 1.702 0 1.92-3.011 5.076-9.033 9.47 3.345 5.235 5.905 8.915 7.68 11.04.931 1.076 1.818 1.614 2.662 1.614.087 0 .48-.044 1.178-.131.262.785.393 1.44.393 1.963 0 .931-.437 1.63-1.31 2.095-.843.436-1.876.654-3.098.654-1.6 0-3.185-.741-4.756-2.225-2.066-1.949-4.698-5.774-7.898-11.476-.058.029-.306.189-.742.48v3.927c0 3.258.349 6.05 1.047 8.378-1.076.407-2.4.611-3.971.611-.582 0-1.062-.044-1.44-.13a4.566 4.566 0 0 1-1.222-.394c-.407-.232-.712-.61-.916-1.134-.204-.553-.305-1.251-.305-2.095 0-.552.014-1.585.043-3.098.029-1.542.044-2.662.044-3.36ZM142.339 9.841c-1.105 0-2.051-.378-2.836-1.134-.756-.786-1.135-1.775-1.135-2.968 0-1.134.408-2.094 1.222-2.88.815-.785 1.76-1.178 2.837-1.178 1.076 0 1.992.393 2.749 1.178.785.786 1.178 1.746 1.178 2.88 0 1.164-.407 2.139-1.222 2.924-.815.786-1.745 1.178-2.793 1.178Zm.088 1.833c1.105 0 1.963.19 2.574.567.611.378.916 1.12.916 2.226 0 .174-.058 1.454-.174 3.84-.087 2.385-.131 4.174-.131 5.367 0 4.13.247 6.938.742 8.422a12.202 12.202 0 0 1-3.622.567c-1.367 0-2.327-.233-2.88-.698-.524-.495-.785-1.207-.785-2.138 0-.466.014-1.557.043-3.273.058-1.716.087-3.084.087-4.102 0-4.16-.101-7.564-.305-10.21a10.846 10.846 0 0 1 3.535-.568ZM149.663 12.241c1.193-.378 2.327-.567 3.404-.567 2.123 0 3.331.858 3.621 2.575 1.891-1.891 4.044-2.837 6.459-2.837 1.978 0 3.607.567 4.887 1.702 1.28 1.134 1.92 2.75 1.92 4.844 0 .058-.029 1.105-.087 3.141a354.714 354.714 0 0 0-.044 4.626c0 2.502.247 4.625.742 6.37a13.057 13.057 0 0 1-3.797.568c-2.327 0-3.49-.887-3.49-2.662 0-1.047.043-2.967.13-5.76.088-2.822.131-4.523.131-5.105 0-1.193-.247-2.08-.741-2.662-.466-.61-1.077-.916-1.833-.916-1.222 0-2.575.712-4.058 2.138.058 3.723.087 6.414.087 8.072 0 2.56.073 4.8.218 6.72-.96.088-1.818.131-2.574.131-2.91 0-4.364-.698-4.364-2.094 0-.116.029-1.135.087-3.055.087-1.92.131-3.912.131-5.978 0-4.742-.276-7.825-.829-9.25ZM173.516 22.19c0-2.996.829-5.542 2.488-7.636 1.658-2.124 3.723-3.186 6.196-3.186 1.629 0 3.273.495 4.931 1.484.058-1.862.087-3.33.087-4.407 0-3.171-.116-5.76-.349-7.767 1.338-.379 2.313-.568 2.924-.568 2.705 0 4.058.931 4.058 2.793 0 1.716-.073 5.018-.218 9.905-.117 4.888-.175 8.219-.175 9.993 0 4.597.277 7.768.829 9.513-1.396.35-2.531.524-3.403.524-1.222 0-2.095-.219-2.619-.655-.523-.465-.872-1.09-1.047-1.876a9.283 9.283 0 0 1-2.662 1.92c-.989.494-1.934.742-2.836.742-2.24 0-4.175-1.019-5.804-3.055-1.6-2.036-2.4-4.61-2.4-7.724Zm13.44-5.716c-.872-.64-1.774-.96-2.705-.96-1.309 0-2.342.582-3.098 1.745-.757 1.135-1.135 2.648-1.135 4.539 0 2.094.378 3.825 1.135 5.192.756 1.338 1.687 2.008 2.792 2.008 1.28 0 2.313-.437 3.099-1.31-.059-5.992-.088-9.73-.088-11.214ZM224.954 3.645c1.222-.32 2.342-.48 3.36-.48 2.677 0 4.015.902 4.015 2.705 0 2.793-.96 6.764-2.88 11.913-1.92 5.12-3.855 9.018-5.804 11.695-1.541 2.123-3.52 3.185-5.934 3.185-1.28 0-2.342-.102-3.186-.305-.931-4.597-2.371-9.6-4.32-15.011-1.92-5.411-3.723-9.222-5.411-11.433 1.775-1.63 3.419-2.444 4.931-2.444 1.048 0 1.862.48 2.444 1.44 2.065 3.462 4.247 10.997 6.545 22.604 1.426-2.356 2.866-5.702 4.32-10.036 1.455-4.364 2.182-8.117 2.182-11.259 0-.93-.087-1.789-.262-2.574ZM244.896 11.368c2.153 0 4.015.539 5.586 1.615 1.571 1.076 2.356 2.676 2.356 4.8 0 4.305-3.084 6.458-9.251 6.458-.553 0-1.556-.029-3.011-.087 0 1.658.408 2.865 1.222 3.622.844.756 1.876 1.134 3.098 1.134 2.153 0 3.826-.698 5.018-2.094.67.32 1.208.756 1.615 1.309.436.523.655 1.062.655 1.614 0 .873-.524 1.571-1.571 2.095-1.019.524-2.022.844-3.011.96-.96.116-1.891.175-2.793.175-3.2 0-5.818-.873-7.855-2.619-2.036-1.774-3.054-4.465-3.054-8.072 0-2.386.553-4.422 1.658-6.11 1.135-1.716 2.502-2.938 4.102-3.665 1.629-.756 3.374-1.135 5.236-1.135Zm-.349 4.146c-1.047 0-1.963.48-2.749 1.44-.785.93-1.193 2.313-1.222 4.145a102.31 102.31 0 0 0 1.702-.13c.349-.059.829-.16 1.44-.306.64-.145 1.091-.335 1.353-.567.291-.262.553-.611.785-1.047.233-.466.349-1.033.349-1.702 0-.466-.16-.888-.48-1.266-.32-.378-.712-.567-1.178-.567ZM255.814 12.241c1.192-.378 2.327-.567 3.403-.567 2.124 0 3.331.858 3.622 2.575 1.891-1.891 4.044-2.837 6.458-2.837 1.978 0 3.607.567 4.887 1.702 1.28 1.134 1.92 2.75 1.92 4.844 0 .058-.029 1.105-.087 3.141a350.882 350.882 0 0 0-.043 4.626c0 2.502.247 4.625.741 6.37a13.05 13.05 0 0 1-3.796.568c-2.327 0-3.491-.887-3.491-2.662 0-1.047.044-2.967.131-5.76.087-2.822.131-4.523.131-5.105 0-1.193-.247-2.08-.742-2.662-.465-.61-1.076-.916-1.833-.916-1.221 0-2.574.712-4.058 2.138.058 3.723.087 6.414.087 8.072 0 2.56.073 4.8.219 6.72-.96.088-1.819.131-2.575.131-2.909 0-4.364-.698-4.364-2.094 0-.116.03-1.135.088-3.055.087-1.92.131-3.912.131-5.978 0-4.742-.277-7.825-.829-9.25ZM282.634 24.634v-8.727c-1.513.029-2.807.13-3.883.305-.233-.64-.35-1.25-.35-1.833 0-1.716 1.179-2.574 3.535-2.574h.611c-.058-1.775-.146-3.258-.262-4.451.931-.378 1.993-.567 3.186-.567.785 0 1.396.043 1.832.13.466.059.902.292 1.309.699.437.407.655 1.003.655 1.789 0 .465-.044 1.28-.131 2.444 3.025 0 5.425-.117 7.2-.35.204.408.305 1.033.305 1.877 0 1.542-.858 2.356-2.574 2.443-1.106.059-2.778.088-5.018.088-.088 2.88-.131 5.76-.131 8.64 0 .698.014 1.236.043 1.614.03.35.102.786.219 1.31.145.523.378.901.698 1.134.349.233.785.349 1.309.349 1.454 0 2.618-.436 3.491-1.31 1.193.845 1.789 1.703 1.789 2.575 0 .815-.509 1.484-1.527 2.008-.989.494-2.182.742-3.579.742-3.17 0-5.425-.699-6.763-2.095-1.309-1.396-1.964-3.476-1.964-6.24ZM319.495 32.096c-1.425.378-2.647.567-3.665.567-.931 0-1.731-.204-2.4-.61-.64-.437-.989-1.063-1.047-1.877-2.124 1.862-4.422 2.793-6.895 2.793-4.102 0-6.153-2.051-6.153-6.153 0-.087.015-1.15.044-3.186.058-2.036.087-3.563.087-4.581 0-3.026-.232-5.295-.698-6.808a11.107 11.107 0 0 1 3.535-.567c2.501 0 3.752.887 3.752 2.662 0 .96-.043 2.749-.131 5.367-.087 2.618-.13 4.19-.13 4.713 0 1.396.218 2.473.654 3.229.466.756 1.033 1.134 1.702 1.134 1.484 0 2.865-.683 4.145-2.05a229.68 229.68 0 0 1-.043-5.28c0-3.375-.102-6.444-.306-9.208 1.164-.378 2.284-.567 3.36-.567 1.164 0 2.066.175 2.706.524.64.349.96 1.076.96 2.181 0 .291-.044 1.179-.131 2.662a800.825 800.825 0 0 0-.131 3.491v3.142c0 3.695.262 6.502.785 8.422ZM326.422 11.674c1.105 0 1.964.19 2.574.567.611.378.917 1.12.917 2.226v.567a14.606 14.606 0 0 1 2.793-2.53c1.105-.757 2.196-1.136 3.272-1.136.844 0 1.499.204 1.964.611.465.379.698.888.698 1.528 0 1.192-.523 2.356-1.571 3.49-1.018-.64-1.963-.96-2.836-.96-1.28 0-2.778.888-4.495 2.662a98.364 98.364 0 0 0-.131 4.975c0 4.13.248 6.938.742 8.422a12.202 12.202 0 0 1-3.622.567c-1.367 0-2.327-.233-2.88-.698-.523-.495-.785-1.207-.785-2.138 0-.466.014-1.557.044-3.273.058-1.716.087-3.084.087-4.102 0-4.16-.102-7.564-.306-10.21a10.85 10.85 0 0 1 3.535-.568ZM351.132 11.368c2.153 0 4.015.539 5.585 1.615 1.571 1.076 2.357 2.676 2.357 4.8 0 4.305-3.084 6.458-9.251 6.458-.553 0-1.556-.029-3.011-.087 0 1.658.407 2.865 1.222 3.622.844.756 1.876 1.134 3.098 1.134 2.153 0 3.826-.698 5.018-2.094.669.32 1.207.756 1.615 1.309.436.523.654 1.062.654 1.614 0 .873-.523 1.571-1.571 2.095-1.018.524-2.021.844-3.011.96-.96.116-1.89.175-2.792.175-3.2 0-5.818-.873-7.855-2.619-2.036-1.774-3.054-4.465-3.054-8.072 0-2.386.552-4.422 1.658-6.11 1.134-1.716 2.502-2.938 4.102-3.665 1.629-.756 3.374-1.135 5.236-1.135Zm-.349 4.146c-1.047 0-1.964.48-2.749 1.44-.786.93-1.193 2.313-1.222 4.145a102.31 102.31 0 0 0 1.702-.13c.349-.059.829-.16 1.44-.306.64-.145 1.091-.335 1.353-.567.29-.262.552-.611.785-1.047.233-.466.349-1.033.349-1.702 0-.466-.16-.888-.48-1.266-.32-.378-.713-.567-1.178-.567ZM392.632 24.808c2.211 1.019 3.316 2.211 3.316 3.579 0 .843-.364 1.585-1.091 2.225-.698.64-1.585 1.12-2.662 1.44-1.047.32-2.051.553-3.011.698a17.61 17.61 0 0 1-2.618.218 19.45 19.45 0 0 1-5.411-.741c-1.716-.524-3.36-1.324-4.931-2.4-1.541-1.106-2.778-2.662-3.709-4.67-.931-2.036-1.396-4.407-1.396-7.112 0-4.655 1.382-8.291 4.145-10.91 2.764-2.646 6.517-3.97 11.259-3.97 2.53 0 4.654.465 6.37 1.396 1.746.902 2.619 2.022 2.619 3.36 0 1.018-.422 1.848-1.266 2.487-.843.64-1.963 1.048-3.36 1.222-.494-1.338-1.28-2.341-2.356-3.01-1.077-.699-2.226-1.048-3.447-1.048-2.008 0-3.666.917-4.975 2.75-1.28 1.832-1.92 4.116-1.92 6.85 0 3.23.655 5.935 1.964 8.116 1.338 2.182 3.2 3.273 5.585 3.273a8.48 8.48 0 0 0 3.84-.916c1.251-.611 2.269-1.556 3.055-2.837ZM402.751 18.83c-2.56-.465-3.84-1.556-3.84-3.272 0-1.164.829-2.153 2.487-2.968 1.688-.814 3.71-1.222 6.066-1.222 3.054 0 5.309.582 6.764 1.746 1.454 1.164 2.181 3.098 2.181 5.804 0 .232-.014 1.09-.043 2.574-.029 1.484-.044 2.59-.044 3.316 0 3.346.276 5.848.829 7.506-1.28.35-2.414.524-3.403.524-2.095 0-3.317-.844-3.666-2.531-.698.814-1.6 1.469-2.705 1.963a8.183 8.183 0 0 1-3.273.698c-1.6 0-2.953-.509-4.058-1.527-1.077-1.047-1.615-2.589-1.615-4.625 0-1.63.32-2.822.96-3.578.669-.757 1.571-1.324 2.706-1.702 2.211-.698 4.829-1.135 7.854-1.31 0-1.774-.203-3.01-.611-3.708-.378-.728-1.192-1.091-2.443-1.091-.728 0-1.513.305-2.357.916-.814.611-1.411 1.44-1.789 2.487Zm7.157 4.539c-.873.145-1.542.276-2.008.392a8.352 8.352 0 0 0-1.527.567c-.524.233-.902.553-1.135.96-.203.379-.305.859-.305 1.44 0 .728.175 1.28.524 1.659.349.349.785.523 1.309.523 1.222 0 2.24-.363 3.054-1.09-.029-.262-.043-.699-.043-1.31 0-1.047.043-2.094.131-3.142ZM420.43 12.46c1.047-.524 2.196-.786 3.447-.786.64 0 1.178.058 1.615.175.436.087.858.378 1.265.872.408.466.64 1.135.698 2.008.64-1.106 1.47-1.935 2.488-2.488a6.809 6.809 0 0 1 3.36-.873c2.502 0 4.451.931 5.847 2.793 1.425 1.833 2.138 4.19 2.138 7.07 0 1.92-.291 3.737-.873 5.454-.552 1.716-1.512 3.2-2.88 4.45-1.367 1.223-3.025 1.833-4.974 1.833-1.92 0-3.564-.64-4.931-1.92v2.357c.029 1.396.044 2.356.044 2.88.029.553.072 1.353.131 2.4.058 1.076.145 1.963.261 2.662.117.727.262 1.352.437 1.876-.989.233-2.095.35-3.317.35-1.571 0-2.632-.19-3.185-.568-.553-.378-.829-1.018-.829-1.92 0-2.851.014-6.386.043-10.604.059-4.218.088-7.156.088-8.814 0-4.626-.291-7.695-.873-9.208Zm7.287 15.36c.96.668 2.124 1.003 3.491 1.003 1.164 0 2.022-.684 2.575-2.05.582-1.397.872-3.026.872-4.888 0-2.153-.276-3.738-.829-4.757-.552-1.047-1.265-1.57-2.138-1.57-1.483 0-2.822.727-4.014 2.181.029 2.502.043 5.862.043 10.08ZM448.135 9.841c-1.106 0-2.051-.378-2.837-1.134-.756-.786-1.134-1.775-1.134-2.968 0-1.134.407-2.094 1.222-2.88.814-.785 1.76-1.178 2.836-1.178 1.076 0 1.993.393 2.749 1.178.786.786 1.178 1.746 1.178 2.88 0 1.164-.407 2.139-1.222 2.924-.814.786-1.745 1.178-2.792 1.178Zm.087 1.833c1.105 0 1.964.19 2.575.567.61.378.916 1.12.916 2.226 0 .174-.058 1.454-.175 3.84-.087 2.385-.131 4.174-.131 5.367 0 4.13.248 6.938.742 8.422a12.202 12.202 0 0 1-3.622.567c-1.367 0-2.327-.233-2.88-.698-.523-.495-.785-1.207-.785-2.138 0-.466.015-1.557.044-3.273.058-1.716.087-3.084.087-4.102 0-4.16-.102-7.564-.306-10.21a10.85 10.85 0 0 1 3.535-.568ZM458.842 24.634v-8.727c-1.513.029-2.808.13-3.884.305-.233-.64-.349-1.25-.349-1.833 0-1.716 1.178-2.574 3.534-2.574h.611c-.058-1.775-.145-3.258-.262-4.451.931-.378 1.993-.567 3.186-.567.785 0 1.396.043 1.833.13.465.059.902.292 1.309.699.436.407.654 1.003.654 1.789 0 .465-.043 1.28-.131 2.444 3.026 0 5.426-.117 7.2-.35.204.408.306 1.033.306 1.877 0 1.542-.858 2.356-2.575 2.443-1.105.059-2.778.088-5.018.088-.087 2.88-.131 5.76-.131 8.64 0 .698.015 1.236.044 1.614.029.35.102.786.218 1.31.146.523.378.901.698 1.134.349.233.786.349 1.309.349 1.455 0 2.618-.436 3.491-1.31 1.193.845 1.789 1.703 1.789 2.575 0 .815-.509 1.484-1.527 2.008-.989.494-2.182.742-3.578.742-3.171 0-5.426-.699-6.764-2.095-1.309-1.396-1.963-3.476-1.963-6.24ZM478.859 18.83c-2.56-.465-3.84-1.556-3.84-3.272 0-1.164.829-2.153 2.487-2.968 1.688-.814 3.709-1.222 6.066-1.222 3.054 0 5.309.582 6.763 1.746 1.455 1.164 2.182 3.098 2.182 5.804 0 .232-.014 1.09-.043 2.574-.029 1.484-.044 2.59-.044 3.316 0 3.346.276 5.848.829 7.506-1.28.35-2.414.524-3.404.524-2.094 0-3.316-.844-3.665-2.531-.698.814-1.6 1.469-2.705 1.963a8.183 8.183 0 0 1-3.273.698c-1.6 0-2.953-.509-4.058-1.527-1.077-1.047-1.615-2.589-1.615-4.625 0-1.63.32-2.822.96-3.578.669-.757 1.571-1.324 2.706-1.702 2.21-.698 4.829-1.135 7.854-1.31 0-1.774-.204-3.01-.611-3.708-.378-.728-1.193-1.091-2.443-1.091-.728 0-1.513.305-2.357.916-.814.611-1.411 1.44-1.789 2.487Zm7.156 4.539c-.872.145-1.541.276-2.007.392a8.352 8.352 0 0 0-1.527.567c-.524.233-.902.553-1.135.96-.203.379-.305.859-.305 1.44 0 .728.174 1.28.524 1.659.349.349.785.523 1.309.523 1.221 0 2.24-.363 3.054-1.09-.029-.262-.043-.699-.043-1.31 0-1.047.043-2.094.13-3.142ZM500.073.11c1.105 0 1.963.19 2.574.568.611.378.916 1.12.916 2.225 0 .175-.058 1.455-.174 3.84-.087 2.386-.131 4.175-.131 5.367v11.957c0 3.84.247 6.516.742 8.029a12.202 12.202 0 0 1-3.622.567c-1.367 0-2.327-.233-2.88-.698-.524-.495-.785-1.207-.785-2.138 0-.466.014-1.484.043-3.055.058-1.57.087-2.85.087-3.84V10.89c0-4.16-.101-7.564-.305-10.211a10.846 10.846 0 0 1 3.535-.568Z" />
</svg>